HIERARCHY
ROOT Hips
{
	OFFSET 0.000000 0.000000 0.000000 
	CHANNELS 6 Xposition Yposition Zposition Zrotation Yrotation Xrotation
	JOINT LeftUpLeg
	{
		OFFSET 1.363060 -1.794630 0.839290 
		CHANNELS 3 Zrotation Yrotation Xrotation
		JOINT LeftLeg
		{
			OFFSET 2.448110 -6.726130 0.000000 
			CHANNELS 3 Zrotation Yrotation Xrotation
			JOINT LeftFoot
			{
				OFFSET 2.562200 -7.039590 0.000000 
				CHANNELS 3 Zrotation Yrotation Xrotation
				JOINT LeftToeBase
				{
					OFFSET 0.157640 -0.433110 2.322550 
					CHANNELS 3 Zrotation Yrotation Xrotation
					End Site
					{
						OFFSET 0.000000 0.000000 0.000000 
					}
				}
			}
		}
	}
	JOINT RightUpLeg
	{
		OFFSET -1.305520 -1.794630 0.839290 
		CHANNELS 3 Zrotation Yrotation Xrotation
		JOINT RightLeg
		{
			OFFSET -2.542530 -6.985550 0.000000 
			CHANNELS 3 Zrotation Yrotation Xrotation
			JOINT RightFoot
			{
				OFFSET -2.568260 -7.056230 0.000000 
				CHANNELS 3 Zrotation Yrotation Xrotation
				JOINT RightToeBase
				{
					OFFSET -0.164730 -0.452590 2.363150 
					CHANNELS 3 Zrotation Yrotation Xrotation
					End Site
					{
						OFFSET 0.000000 0.000000 0.000000 
					}
				}
			}
		}
	}
	JOINT Spine
	{
		OFFSET 0.028270 2.035590 -0.193380 
		CHANNELS 3 Zrotation Yrotation Xrotation
		JOINT Spine1
		{
			OFFSET 0.056720 2.048850 -0.042750 
			CHANNELS 3 Zrotation Yrotation Xrotation
			JOINT Neck1
			{
				OFFSET -0.054170 1.746240 0.172020 
				CHANNELS 3 Zrotation Yrotation Xrotation
				JOINT Head
				{
					OFFSET 0.104070 1.761360 -0.123970 
					CHANNELS 3 Zrotation Yrotation Xrotation
					End Site
					{
						OFFSET 0.000000 0.000000 0.000000 
					}
				}
			}
			JOINT LeftArm
			{
				OFFSET 3.362410 1.200890 -0.311210 
				CHANNELS 3 Zrotation Yrotation Xrotation
				JOINT LeftForeArm
				{
					OFFSET 4.983000 -0.000000 -0.000000 
					CHANNELS 3 Zrotation Yrotation Xrotation
					JOINT LeftHand
					{
						OFFSET 3.483560 -0.000000 -0.000000 
						CHANNELS 3 Zrotation Yrotation Xrotation
						JOINT LeftHandIndex1
						{
							OFFSET 0.715260 -0.000000 -0.000000 
							CHANNELS 3 Zrotation Yrotation Xrotation
							End Site
							{
								OFFSET 0.000000 0.000000 0.000000 
							}
						}
					}
				}
			}
			JOINT RightArm
			{
				OFFSET -3.136600 1.374050 -0.404650 
				CHANNELS 3 Zrotation Yrotation Xrotation
				JOINT RightForeArm
				{
					OFFSET -5.241900 -0.000000 -0.000000 
					CHANNELS 3 Zrotation Yrotation Xrotation
					JOINT RightHand
					{
						OFFSET -3.444170 -0.000000 -0.000000 
						CHANNELS 3 Zrotation Yrotation Xrotation
						JOINT RightHandIndex1
						{
							OFFSET -0.622530 -0.000000 -0.000000 
							CHANNELS 3 Zrotation Yrotation Xrotation
							End Site
							{
								OFFSET 0.000000 0.000000 0.000000 
							}
						}
					}
				}
			}
		}
	}
}
MOTION
Frames: 18
Frame Time: 0.041667
39.961540 16.087734 5.608374 23.528390 -12.484233 -7.703232 32.828243 0.095177 -28.300767 -8.814544 8.890157 28.328997 5.740601 -40.233958 80.666191 2.393600 9.641900 27.824700 39.710435 -85.272170 -14.025253 -9.141552 19.589716 -50.062548 -0.145233 -7.248446 17.911202 -0.490400 -4.490100 12.459700 5.166574 -43.896500 -7.100673 11.299122 -18.961694 -60.850733 7.122179 -8.987998 9.161988 9.830800 -10.248300 -0.529200 -70.164122 23.147183 102.129549 147.064304 -37.244975 -103.904678 -2.288060 -1.585435 9.020028 -7.125000 0.000000 0.000000 70.938254 -45.103413 89.787042 -29.532982 41.320009 -18.785382 0.819049 8.197394 -0.627751 7.125000 0.000000 0.000000 
52.338941 21.745194 7.706658 -50.669779 -83.561189 58.862535 11.755063 -8.034335 -10.622600 -1.174976 6.511641 4.897936 4.335747 26.864068 52.784920 0.121700 2.248600 6.193200 -2.667958 -2.514628 -14.735417 1.197326 -6.061090 4.368103 4.834208 -38.810080 45.076841 -0.592200 -4.926700 13.699700 2.042607 -2.908388 0.168345 11.151153 -0.675529 -4.763897 6.880708 -23.967173 11.831810 5.266300 -13.045300 12.894400 -82.827340 -37.771116 92.355130 141.287863 -34.363672 -101.711666 -3.396799 -1.884545 -0.624831 -7.125000 0.000000 0.000000 73.156126 9.688204 75.345769 -28.735755 39.236277 -16.483725 1.033510 7.949555 -7.839982 7.125000 0.000000 0.000000 
52.353313 21.744585 7.701542 -51.157513 -83.556773 59.320287 11.982947 -7.936433 -10.217673 -1.312156 6.509802 4.853581 4.292859 26.984097 52.709646 0.124500 2.274500 6.264800 -2.604303 -2.600485 -14.511730 1.157666 -6.036947 4.362744 4.721047 -38.605848 45.228035 -0.591100 -4.922200 13.686900 2.008388 -2.722490 0.667194 10.471525 -0.666591 -2.718433 7.073625 -24.124189 11.816568 5.453200 -12.995400 13.238300 -84.701269 -40.899982 95.153911 141.169140 -34.646827 -101.387235 -3.389055 -1.961368 -1.753076 -7.125000 0.000000 0.000000 73.959310 11.336149 73.958806 -26.939906 38.156398 -15.111450 1.035698 8.156482 -7.642503 7.125000 0.000000 0.000000 
52.362448 21.745438 7.694600 -50.436121 -83.544467 58.589036 11.876498 -7.828327 -10.556129 -1.316065 6.586943 5.049819 4.242194 26.915851 52.704368 0.125600 2.284900 6.293600 -2.604475 -2.616220 -14.612983 1.140760 -6.038667 4.352262 4.719098 -38.655445 45.233387 -0.598500 -4.952600 13.773600 2.072331 -2.974488 0.470291 10.881625 -0.759184 -3.425874 7.124487 -24.022325 11.862660 5.466000 -12.987200 13.456600 -86.388611 -40.975441 97.269597 141.054788 -34.816855 -101.006410 -3.371409 -2.063091 -2.012777 -7.125000 0.000000 0.000000 74.066707 10.557895 73.380020 -25.490920 36.928713 -13.892477 1.664342 7.955609 -6.555819 7.125000 0.000000 0.000000 
52.363666 21.751284 7.684368 -47.721510 -83.234935 55.876366 12.282283 -7.727281 -10.192234 -1.717521 6.504348 5.096370 4.309219 26.649480 52.672352 0.126100 2.289300 6.306000 -2.574106 -2.629100 -14.259420 1.060888 -6.011569 4.190537 4.913586 -38.979569 45.054990 -0.603400 -4.972200 13.829300 1.918468 -2.269853 1.009798 9.819819 -0.784789 1.749931 6.794250 -27.680542 11.534537 1.798400 -12.768700 17.266000 -87.506412 -50.925513 99.163000 139.530277 -35.042522 -100.498548 -3.193209 -2.047632 -3.464635 -7.125000 0.000000 0.000000 73.802706 17.818046 69.912021 -23.835517 34.985308 -12.599239 1.908410 8.059097 -6.230468 7.125000 0.000000 0.000000 
52.374629 21.751163 7.677182 -48.273634 -83.359177 56.392151 12.044617 -7.641609 -10.754847 -1.538296 6.655166 5.289678 4.211199 26.794798 52.672148 0.135600 2.373600 6.539200 -2.582805 -2.514666 -14.468954 1.071199 -6.025685 4.254064 4.908715 -38.992491 45.067956 -0.610800 -5.002300 13.915100 2.310329 -3.657419 0.523894 11.331744 -1.111864 -3.198871 7.394035 -23.393186 12.083983 6.219700 -12.920000 13.882300 -89.527448 -41.951731 100.327315 141.032206 -35.148872 -100.533245 -3.372345 -2.009762 -3.046093 -7.125000 0.000000 0.000000 74.423899 10.162703 73.151433 -22.663198 34.723089 -11.705142 1.943543 7.979450 -4.635528 7.125000 0.000000 0.000000 
52.386322 21.749457 7.672310 -49.925902 -83.602461 58.073873 11.758173 -7.705302 -11.023166 -1.260896 6.798910 5.367863 4.085710 27.125092 52.679876 0.133300 2.353100 6.482500 -2.645454 -2.466957 -14.671370 1.125471 -6.049356 4.349350 4.748440 -38.764290 45.227828 -0.636700 -5.105200 14.209000 2.307381 -3.929502 0.240947 11.899978 -1.130103 -4.124539 7.438861 -23.040985 12.123707 6.273600 -12.822600 14.135600 -90.808836 -41.699832 101.469641 140.883349 -35.244687 -100.276720 -3.418481 -2.008734 -3.352148 -7.125000 0.000000 0.000000 74.171498 9.373932 72.907512 -21.481286 33.556548 -10.817327 2.007150 7.914800 -3.737478 7.125000 0.000000 0.000000 
52.394604 21.751041 7.666341 -50.543090 -83.614798 58.710145 11.962985 -7.725932 -10.637331 -1.340438 6.777155 5.258290 4.039697 27.303945 52.606012 0.135700 2.374200 6.540900 -2.632317 -2.425910 -14.460366 1.110087 -6.039886 4.334827 4.739120 -38.716311 45.265761 -0.609100 -4.995400 13.895500 2.262669 -3.793779 0.642939 11.110201 -1.123706 -2.324512 7.556814 -23.184220 12.030610 6.387400 -12.752000 14.235400 -92.186262 -43.995751 103.404345 140.886715 -35.439289 -100.262321 -3.391518 -2.200441 -4.120660 -7.125000 0.000000 0.000000 75.092836 11.090901 71.826408 -20.070219 32.402135 -9.789920 2.170548 7.911124 -3.277798 7.125000 0.000000 0.000000 
52.399598 21.751893 7.662322 -51.549869 -83.826748 59.728518 11.695830 -7.782008 -10.985795 -1.153776 6.844525 5.294055 3.907089 27.554922 52.564254 0.140000 2.411900 6.645400 -2.715907 -2.345117 -14.665056 1.150293 -6.057767 4.377307 4.635152 -38.605858 45.357362 -0.601500 -4.964500 13.807300 2.293998 -4.108306 0.254819 11.722364 -1.192054 -3.745991 7.355965 -22.949466 12.157996 6.040600 -12.679200 14.342500 -93.298845 -43.188629 103.830086 140.876390 -35.549247 -99.835089 -3.091391 -1.733688 -4.249403 -7.125000 0.000000 0.000000 74.650550 9.780502 71.776759 -19.161486 31.377287 -9.139500 2.297059 8.075277 -2.635953 7.125000 0.000000 0.000000 
52.408002 21.751650 7.659521 -53.769009 -83.990104 61.985032 11.856955 -7.759505 -10.552046 -1.154163 6.842264 5.118212 3.790212 27.922176 52.435775 0.133300 2.353300 6.483100 -2.727131 -2.216873 -14.426540 1.160062 -6.034019 4.382904 4.521334 -38.380074 45.504106 -0.605900 -4.982400 13.858400 2.329140 -4.170537 0.690213 11.119057 -1.270946 -1.947434 7.272097 -22.637155 12.226039 6.148300 -12.476800 14.113900 -94.135246 -44.795357 104.520480 140.550554 -35.857732 -99.817238 -3.329327 -2.095766 -4.943725 -7.125000 0.000000 0.000000 75.297669 11.114984 71.374575 -18.080051 30.521238 -8.378647 2.320235 7.922102 -2.205500 7.125000 0.000000 0.000000 
52.413362 21.751163 7.654648 -55.976226 -84.302852 64.264884 11.498729 -7.880883 -10.927899 -0.855843 6.940697 5.123808 3.609153 28.303996 52.364944 0.144200 2.447100 6.743100 -2.835935 -2.117479 -14.679177 1.222837 -6.035333 4.424290 4.343888 -38.150442 45.675233 -0.609900 -4.998700 13.905000 2.346703 -4.548674 0.250364 11.908926 -1.342694 -3.493481 7.149872 -22.187061 12.347230 6.018600 -12.373200 14.219000 -94.780598 -43.666499 103.923034 140.434761 -36.116353 -99.127288 -2.675488 -1.396065 -4.402622 -7.125000 0.000000 0.000000 74.727624 9.694294 71.678811 -17.339349 29.604845 -7.860072 2.432197 8.184684 -2.094493 7.125000 0.000000 0.000000 
52.417016 21.752990 7.649167 -57.438348 -84.503461 65.790371 11.278840 -8.001564 -11.126140 -0.676506 6.990267 5.105854 3.492163 28.543640 52.299407 0.140400 2.414700 6.653300 -2.928254 -2.044767 -14.815983 1.265600 -6.032519 4.422178 4.263622 -38.068177 45.755606 -0.610200 -4.999800 13.908100 2.276825 -4.597606 -0.008198 12.278294 -1.280181 -4.270736 7.224173 -22.167864 12.275766 5.989700 -12.375600 14.295300 -95.810555 -43.553952 104.113195 140.383332 -36.364042 -98.572020 -1.879906 -0.856595 -3.930184 -7.125000 0.000000 0.000000 74.428896 8.978888 71.121848 -16.583442 28.719744 -7.335542 2.531182 7.963654 -1.683610 7.125000 0.000000 0.000000 
52.419817 21.756278 7.642712 -59.353661 -84.653856 67.706070 11.365553 -8.051271 -10.786773 -0.656180 6.939350 4.906254 3.424780 28.846468 52.211032 0.137800 2.392300 6.591300 -2.979833 -1.917162 -14.620945 1.282027 -5.993518 4.354638 4.148515 -37.905874 45.886712 -0.630800 -5.082100 14.142900 2.275611 -4.628366 0.219911 11.794157 -1.328325 -3.316154 7.109059 -22.142779 12.401163 5.864400 -12.290200 14.439600 -96.311108 -44.397586 104.545486 140.144311 -36.502544 -98.709847 -2.517892 -0.992901 -4.052824 -7.125000 0.000000 0.000000 74.884525 9.468192 70.440437 -15.832122 28.076087 -6.880987 2.592772 8.165874 -1.652562 7.125000 0.000000 0.000000 
52.412387 21.763099 7.628339 -59.382883 -84.731785 67.733506 11.402063 -8.087639 -10.722949 -0.658416 6.881534 4.811983 3.476770 28.821203 52.234562 0.141600 2.425500 6.683000 -3.038043 -1.747818 -14.511716 1.298011 -5.965294 4.247867 4.226803 -38.061911 45.795187 -0.625400 -5.060500 14.081300 2.356183 -4.844757 0.187681 12.137245 -1.422698 -3.558314 7.066743 -21.892533 12.431859 5.794700 -12.174800 14.447500 -96.662049 -44.415134 104.328255 139.876275 -36.489699 -98.777448 -2.804671 -1.355420 -4.082153 -7.125000 0.000000 0.000000 74.605454 9.125455 70.229676 -15.228541 27.390408 -6.494107 2.571625 8.157311 -1.729430 7.125000 0.000000 0.000000 
52.415554 21.765901 7.627243 -61.727855 -85.014629 70.095354 11.202242 -8.042284 -10.847489 -0.512280 6.879942 4.712333 3.291856 29.188843 52.105281 0.139600 2.407700 6.633700 -3.114143 -1.683467 -14.595456 1.319840 -5.944166 4.257183 3.993312 -37.739400 46.026351 -0.638800 -5.113400 14.232300 2.439526 -5.198570 -0.012603 12.793553 -1.552624 -4.333491 6.844527 -21.409910 12.593364 5.532900 -11.983000 14.470900 -96.591440 -43.825151 103.485800 139.329017 -36.478077 -98.849798 -3.350140 -1.820268 -3.947172 -7.125000 0.000000 0.000000 73.915274 8.147589 70.577119 -14.824802 26.874902 -6.219589 2.605204 8.186204 -1.486110 7.125000 0.000000 0.000000 
52.418721 21.767362 7.623589 -65.265791 -85.302919 73.683740 11.007197 -8.147580 -10.827672 -0.319197 6.875835 4.563306 3.161794 29.585603 51.997482 0.141900 2.428000 6.690100 -3.231631 -1.567813 -14.639377 1.371205 -5.930630 4.277076 3.790320 -37.430928 46.240397 -0.640800 -5.121400 14.255200 2.398632 -5.362629 -0.142506 13.111132 -1.558452 -4.684334 6.881923 -20.740122 12.759149 5.911400 -11.859800 14.571000 -96.740026 -43.588874 102.881240 139.434815 -36.590718 -98.576612 -2.875385 -1.323774 -2.874184 -7.125000 0.000000 0.000000 73.466777 7.241458 70.422261 -14.418852 26.539367 -5.991700 2.567521 8.219224 -1.383149 7.125000 0.000000 0.000000 
52.421644 21.769555 7.621640 -69.301289 -85.436636 77.752533 11.120875 -8.293507 -10.379947 -0.277230 6.838054 4.331484 3.026378 30.074742 51.823319 0.139600 2.408400 6.635700 -3.253994 -1.516605 -14.458424 1.401854 -5.877016 4.238252 3.526212 -36.983565 46.518104 -0.607700 -4.989800 13.879500 2.309807 -5.085658 0.188123 12.324408 -1.475089 -3.228542 6.931395 -20.879191 12.719856 5.937000 -11.798300 14.646600 -96.999484 -45.253290 103.714478 139.368412 -36.607560 -98.882736 -3.172014 -1.627165 -2.700588 -7.125000 0.000000 0.000000 74.029296 8.314320 69.261883 -13.749955 25.967737 -5.618743 2.596527 8.242402 -1.271066 7.125000 0.000000 0.000000 
52.425420 21.772356 7.619691 -72.476428 -85.692891 80.962085 10.877964 -8.375089 -10.466934 -0.108653 6.844164 4.245284 2.887233 30.416082 51.706674 0.149600 2.492200 6.868000 -3.378204 -1.459357 -14.540458 1.437508 -5.866202 4.260460 3.348887 -36.694189 46.697833 -0.614100 -5.015400 13.952400 2.241523 -5.080129 0.035584 12.488411 -1.457808 -3.472897 6.662024 -21.433807 12.708355 5.119000 -11.827400 14.764200 -96.881056 -45.565314 103.445709 139.093651 -36.637418 -98.745699 -3.229207 -1.537738 -2.200142 -7.125000 0.000000 0.000000 73.613794 7.999822 68.739437 -13.286551 25.387048 -5.399085 2.313864 8.534438 -1.044922 7.125000 0.000000 0.000000 
